<?xml version="1.0" standalone="no"?>
<!DOCTYPE svg PUBLIC "-//W3C//DTD SVG 20010904//EN"
 "http://www.w3.org/TR/2001/REC-SVG-20010904/DTD/svg10.dtd">
<svg version="1.0" xmlns="http://www.w3.org/2000/svg"
 width="342.000000pt" height="342.000000pt" viewBox="0 0 342.000000 342.000000"
 preserveAspectRatio="xMidYMid meet">
<metadata>
Created by potrace 1.11, written by Peter Selinger 2001-2013
</metadata>
<g transform="translate(0.000000,342.000000) scale(0.100000,-0.100000)"
fill="#000000" stroke="none">
<path d="M1645 3243 c-55 -113 -63 -124 -194 -258 -75 -77 -144 -156 -153
-175 -9 -19 -28 -57 -41 -85 -13 -27 -61 -123 -105 -212 l-82 -163 -252 -126
-253 -126 -130 -129 c-126 -125 -134 -130 -259 -193 l-129 -64 94 -48 c52 -26
110 -56 129 -65 19 -9 91 -74 160 -144 l125 -127 257 -129 258 -129 129 -258
129 -257 127 -125 c114 -113 131 -134 174 -220 26 -52 55 -110 65 -129 l18
-35 64 129 c61 125 66 132 193 259 l129 131 124 250 124 250 257 130 258 131
127 127 c122 122 132 129 255 190 93 47 124 67 115 74 -7 6 -62 34 -123 63
-104 50 -117 59 -245 185 l-135 133 -252 126 -253 126 -126 253 -126 252 -129
130 c-123 125 -131 135 -189 253 -33 67 -65 122 -69 122 -5 0 -34 -53 -66
-117z m177 -1010 l107 -107 98 -1 98 -1 0 -97 0 -97 110 -110 109 -110 -110
-112 -111 -113 2 -92 c1 -106 13 -96 -114 -95 l-75 1 -113 -112 -113 -111
-113 111 -112 111 -88 -1 c-49 -1 -91 2 -94 6 -3 5 -5 47 -5 95 l0 87 -111
113 -112 112 112 113 111 112 0 68 c0 37 1 80 1 95 l1 28 95 -1 94 -1 108 108
c59 59 110 108 113 108 2 0 53 -48 112 -107z"/>
</g>
</svg>
